Coordinates
version=1
nRows=21
nColumns=33
inDegrees=yes

Units are S.I. units (second, meters, Newtons, ...)
Angles are in degrees.

endheader
time	ground_thorax_rot_x	ground_thorax_rot_y	ground_thorax_rot_z	ground_thorax_tx	ground_thorax_ty	ground_thorax_tz	clav_prot_r	clav_elev_r	scapula_abduction_r	scapula_elevation_r	scapula_upward_rot_r	scapula_winging_r	shoulder_elv_r	plane_of_elev_r	axial_rot_r	elbow_flexion_r	pro_sup_r	wrist_flex_r	wrist_dev_r	clav_prot_l	clav_elev_l	scapula_abduction_l	scapula_elevation_l	scapula_upward_rot_l	scapula_winging_l	shoulder_elv_l	plane_of_elev_l	axial_rot_l	elbow_flexion_l	pro_sup_l	wrist_flex_l	wrist_dev_l
      4.39000000	     -3.22277467	      4.93494332	      7.32256360	     -0.09071210	      1.02931881	      0.01029067	     18.27346582	    -14.15870043	     45.00000000	    -14.45169264	     24.15239588	    -12.48053636	      0.03371772	    -55.41181188	    125.79541001	    -31.31635913	   -135.52479613	     10.13714370	      3.64442605	     27.82158056	    -10.49484155	    -42.28627728	     -5.17322814	    -22.63680857	     15.75622350	     52.98483567	      2.76031726	      0.79841144	     10.51968225	     10.58359409	     15.96277758	     -1.45158761
      4.40000000	     -3.21222323	      4.93655159	      7.17714168	     -0.08984943	      1.03065315	      0.01029424	     18.16471288	    -14.42084122	     44.99960432	    -14.75161405	     24.42805204	    -12.24826902	      0.12409955	    -55.64524447	    125.29501571	    -30.17101356	   -135.21297425	      8.39076735	      3.52347651	     27.60484120	    -10.80588734	    -41.88629322	     -4.94325809	    -22.66213189	     15.41369839	     53.35817978	      2.56509014	      0.82852874	     10.34735051	     11.01240991	     15.77821005	     -1.98850177
      4.41000000	     -3.04369975	      4.93454032	      7.08500393	     -0.08845251	      1.03080670	      0.01062160	     18.03606955	    -14.20837185	     44.83743646	    -14.58209768	     24.45744733	    -12.30063300	     -0.45551568	    -55.94493359	    124.89987684	    -30.87824759	   -134.96126033	      4.58354482	      3.60945841	     27.03985780	    -10.74877541	    -40.97830033	     -4.98123525	    -22.56191422	     14.85324980	     53.38550631	      2.39259596	      0.79120721	     10.64593624	     11.57144970	     15.71423473	     -3.05351147
      4.42000000	     -3.07984213	      4.85535503	      6.92794968	     -0.08803118	      1.03091592	      0.01068215	     18.14029710	    -14.18411547	     45.00000000	    -14.55670579	     24.45914545	    -12.40344294	     -0.31187494	    -56.06270163	    124.59355695	    -30.50841216	   -135.19763568	      3.24099995	      4.10371317	     26.82163655	    -10.49562697	    -40.65718054	     -5.18966659	    -22.52903956	     14.71770442	     53.45691317	      2.15300240	      1.03027606	     11.27904930	     11.53043997	     15.79631885	     -3.40528105
      4.43000000	     -2.94406087	      4.85537708	      7.04995697	     -0.08754529	      1.03075819	      0.01089333	     18.12676589	    -13.98890358	     44.74139662	    -14.29508695	     24.08479855	    -12.47104277	     -0.54292681	    -56.29709880	    124.27950534	    -31.01892240	   -135.80179750	      2.02556351	      4.62586174	     26.51021389	    -10.42971010	    -40.15324857	     -5.26756566	    -22.53622416	     14.41410512	     53.36559066	      1.79059230	      1.45583050	     11.84320790	     11.36022192	     15.97498136	     -3.74851453
      4.44000000	     -2.84108850	      4.79849963	      6.84243845	     -0.08724982	      1.03093900	      0.01089875	     18.13718187	    -14.16709046	     44.68678562	    -14.42600699	     23.99808084	    -12.34193003	     -0.50000978	    -56.87678892	    124.23818133	    -31.72429491	   -138.23704955	     -0.16514946	      5.92267362	     25.96775314	    -10.44959113	    -39.28354518	     -5.15438656	    -22.25337402	     13.88039496	     53.58623977	      1.26181594	      1.32174698	     12.29352309	     11.08648482	     16.68051375	     -4.33181214
      4.45000000	     -2.83355319	      4.78472619	      6.92750256	     -0.08722871	      1.03046401	      0.01095013	     18.03643679	    -14.01992616	     44.28887499	    -14.20731520	     23.61893434	    -12.30588106	     -0.61487190	    -56.98338066	    124.13990720	    -32.14039415	   -138.73075988	      0.02449297	      5.93603793	     25.73914990	    -10.20800852	    -38.92454858	     -5.43403726	    -22.39252756	     13.71059019	     53.58757521	      0.96494055	      1.78302640	     13.14772201	     10.88728744	     16.72895399	     -4.56373514
      4.46000000	     -2.85901538	      4.78784810	      6.81468638	     -0.08701956	      1.03088313	      0.01084807	     17.80481129	    -14.59381706	     43.47516138	    -14.55097658	     22.99202694	    -11.61793244	     -0.35523209	    -57.44097424	    124.34689896	    -32.76619740	   -143.15819897	      0.80159289	      6.34644147	     25.14626766	    -10.37390101	    -37.93691740	     -5.27905440	    -22.28270631	     13.06581288	     54.10596994	      0.23127570	      1.66094906	     13.88427559	     10.37101769	     17.69097876	     -5.05983811
      4.47000000	     -2.86239697	      4.75505945	      6.95809741	     -0.08732163	      1.03008826	      0.01089011	     17.67295951	    -14.38188697	     42.99952913	    -14.26074266	     22.56003942	    -11.59431316	     -0.61431362	    -57.52953797	    124.40542937	    -33.52972390	   -143.65643025	      1.01835759	      6.17137071	     24.93193591	    -10.07668159	    -37.60337668	     -5.62061031	    -22.45377069	     12.92690908	     54.06207866	     -0.03756507	      2.20499207	     14.79924144	     10.17330598	     17.68224299	     -5.27064184
      4.48000000	     -2.92044892	      4.81470639	      6.93658912	     -0.08745710	      1.03047428	      0.01068987	     17.37520429	    -15.13004474	     41.85808892	    -14.66924140	     21.60392112	    -10.67378368	     -0.33414833	    -58.02525216	    124.88701285	    -34.57374216	   -148.42270003	      1.78410175	      5.99418112	     24.47304816	    -10.32193999	    -36.80577193	     -5.49706556	    -22.57840844	     12.37275798	     54.68397334	     -0.69884041	      2.13150993	     15.65687706	      9.82820902	     18.39421439	     -5.59966906
      4.49000000	     -2.88468716	      4.76923482	      6.99794023	     -0.08795751	      1.02956789	      0.01072372	     17.21326082	    -14.85995376	     41.38739748	    -14.34309956	     21.24108151	    -10.68296946	     -0.58591162	    -58.07629597	    124.93445944	    -35.51008629	   -148.70962644	      1.99657424	      5.87768219	     24.28001819	     -9.99012302	    -36.50915684	     -5.86400763	    -22.74106220	     12.26573744	     54.61183460	     -0.87969696	      2.68845938	     16.70158316	      9.64412834	     18.35762100	     -5.82885610
      4.50000000	     -2.87735338	      4.74862848	      7.05457955	     -0.08850345	      1.02881654	      0.01077682	     17.06475115	    -14.64588926	     40.85376584	    -14.03098042	     20.75717052	    -10.63865446	     -0.93507157	    -58.13685827	    124.93268363	    -36.72601645	   -149.13070901	      2.29549738	      5.85233331	     24.08167818	     -9.81134750	    -36.18529336	     -6.10948016	    -22.91926459	     12.10208093	     54.71051931	     -1.18728566	      3.20785151	     17.71689214	      9.48530796	     18.34687636	     -6.06058685
      4.51000000	     -3.15826795	      4.75678905	      7.11496755	     -0.08875362	      1.02931610	      0.01041435	     16.56335348	    -15.80447987	     39.22848085	    -14.73455327	     19.56648855	     -9.23369372	     -0.70869839	    -58.71238945	    125.67911359	    -38.28895681	   -153.54687220	      2.05523447	      6.05662464	     23.59165396	     -9.90060490	    -35.32824731	     -6.28392231	    -23.39780960	     11.53488581	     55.59845533	     -1.72493486	      3.27387862	     18.97599079	      9.71694358	     19.02661900	     -6.33874132
      4.52000000	     -3.04655428	      4.75710085	      7.08800104	     -0.08944250	      1.02857049	      0.01051300	     16.43450434	    -15.46531312	     38.71860236	    -14.29686328	     19.05594361	     -9.29217673	     -1.01796698	    -58.74551893	    125.60942687	    -39.78701674	   -153.70783207	      2.38290007	      5.94013430	     23.43726583	     -9.74301321	    -35.07646641	     -6.50150580	    -23.55782245	     11.41025584	     55.62118860	     -1.93338849	      3.76922975	     20.04325736	      9.59926601	     18.95167529	     -6.57984971
      4.53000000	     -2.98732710	      4.71359114	      7.21760872	     -0.09019720	      1.02796527	      0.01057033	     16.28800501	    -15.21434479	     38.13725913	    -13.91801695	     18.48447055	     -9.26010241	     -1.49233311	    -58.87830508	    125.54992270	    -41.32005758	   -153.91094578	      2.67382291	      5.89665983	     23.24803513	     -9.63253498	    -34.75278624	     -6.75378835	    -23.87338107	     11.22102819	     55.70354210	     -2.30385686	      4.30337351	     21.34364070	      9.51530422	     18.87071119	     -6.86337297
      4.54000000	     -3.00128114	      4.72924260	      7.45562549	     -0.09116286	      1.02842897	      0.01062883	     16.13614035	    -15.76251115	     37.24210947	    -14.11981796	     17.50556688	     -8.59690857	     -1.98295000	    -59.49923816	    125.14337654	    -43.29114911	   -154.88523731	      2.52469365	      5.98352144	     23.05231511	    -10.15307807	    -34.33299802	     -6.70133504	    -24.69200208	     10.79916815	     56.63566741	     -3.08226115	      4.48059946	     22.91870463	     10.11846777	     18.78996713	     -7.15564550
      4.55000000	     -2.92246707	      4.71392119	      7.36674598	     -0.09181822	      1.02794107	      0.01060518	     15.91577758	    -15.43530139	     36.63419370	    -13.70747670	     17.05987595	     -8.58264134	     -2.36361522	    -59.51432134	    124.98195207	    -44.82379994	   -155.07329368	      2.80546393	      5.94953004	     22.79223463	     -9.88419081	    -33.91842236	     -7.04668578	    -24.90673837	     10.60024222	     56.60991531	     -3.22057099	      5.23973450	     24.38805517	     10.00331511	     18.70926222	     -7.45257147
      4.56000000	     -3.01339078	      4.64882141	      7.59360327	     -0.09253416	      1.02852776	      0.01061742	     15.67007626	    -16.07277474	     35.60767547	    -13.99165067	     16.09983688	     -7.78912670	     -3.17734793	    -60.20575959	    124.30568853	    -47.01737497	   -156.22975629	      2.58105782	      6.04257846	     22.44312461	    -10.17626014	    -33.27724855	     -7.23917281	    -25.81388845	     10.09159718	     57.49108629	     -3.84088970	      5.69686469	     26.11414700	     11.10926455	     18.59368854	     -7.76649882
      4.57000000	     -2.94869104	      4.55693452	      7.79223811	     -0.09332532	      1.02825272	      0.01063772	     15.41411419	    -15.76406137	     34.85506013	    -13.54725040	     15.51099624	     -7.70938349	     -3.83053359	    -60.36135753	    124.14958243	    -48.68043052	   -156.52723708	      2.85581888	      5.99360803	     22.12522891	     -9.92443206	    -32.76301239	     -7.65334856	    -26.19697159	      9.81414540	     57.35636315	     -4.13376761	      6.55732534	     27.65604230	     11.17372265	     18.50866653	     -8.10047475
      4.58000000	     -3.01817559	      4.48394954	      7.85682001	     -0.09412203	      1.02890045	      0.01065280	     15.24325142	    -16.22887625	     34.06967566	    -13.72074734	     14.71883737	     -7.12500237	     -4.75619458	    -60.95790245	    123.25908380	    -50.78082287	   -157.58119564	      2.87799200	      5.77675682	     21.77485329	    -10.08700179	    -32.15419449	     -7.85549570	    -26.88687671	      9.37319462	     58.02032866	     -4.72707298	      7.23309129	     29.48683960	     12.39834586	     18.34058908	     -8.54785006
      4.59000000	     -2.93550164	      4.37907478	      8.06802506	     -0.09492204	      1.02883068	      0.01067530	     14.97382613	    -15.86963574	     33.30969737	    -13.22886349	     14.14233116	     -7.07169625	     -5.49656315	    -61.12915721	    123.03887843	    -52.44827289	   -157.88871940	      3.19060295	      5.65904292	     21.41908688	     -9.82404788	    -31.58294448	     -8.28458947	    -27.27340386	      9.06400871	     57.79479645	     -5.04569016	      8.17195631	     31.09061349	     12.50106525	     18.25157477	     -8.90793615
